<svg width="16" height="16" fill="none" xmlns="http://www.w3.org/2000/svg"><path d="M8.031 6.563c-.775 0-1.406.63-1.406 1.406 0 .775.63 1.406 1.406 1.406.776 0 1.406-.63 1.406-1.406 0-.776-.63-1.407-1.406-1.407z" fill="#999"/><path d="M7.969 0C3.575 0 0 3.575 0 7.969S3.575 16 7.969 16 16 12.363 16 7.969 12.363 0 7.969 0zm3.343 10.313a1.871 1.871 0 01-1.531-.8c-.43.486-1.051.8-1.75.8a2.346 2.346 0 01-2.344-2.344 2.346 2.346 0 012.344-2.344c.53 0 1.014.183 1.406.48v-.011a.468.468 0 11.938 0v2.343a.939.939 0 001.875 0c0-3.137-2.076-4.687-4.219-4.687a4.223 4.223 0 00-4.219 4.219 4.223 4.223 0 004.22 4.218c.937 0 1.823-.3 2.564-.868.494-.378 1.06.367.57.743a5.106 5.106 0 01-3.135 1.063 5.162 5.162 0 01-5.156-5.156 5.162 5.162 0 015.156-5.157c2.59 0 5.156 1.911 5.156 5.626 0 1.034-.84 1.874-1.874 1.874z" fill="#999"/></svg>