<svg width="267" height="233" fill="none" xmlns="http://www.w3.org/2000/svg"><path d="M50.831 192.203V205h-1.696v-5.3c-.615.176-1.175.299-1.679.369-.504.065-1.078.097-1.723.097-1.459 0-2.543-.316-3.252-.949-.709-.633-1.072-1.603-1.09-2.909v-4.105h1.697v4.061c.006.89.208 1.532.606 1.924.405.393 1.084.589 2.04.589 1.113 0 2.246-.158 3.4-.474v-6.1h1.697zm9.861 4.606h-3.19V205h-1.626v-8.191h-3.129v-1.319h7.945v1.319zm.783 3.348c0-.931.181-1.769.544-2.513.37-.745.88-1.319 1.53-1.723.656-.404 1.403-.607 2.241-.607 1.295 0 2.34.449 3.138 1.345.803.897 1.204 2.089 1.204 3.577v.115c0 .925-.179 1.757-.536 2.496a4.013 4.013 0 01-1.52 1.714c-.657.41-1.413.615-2.268.615-1.29 0-2.335-.448-3.138-1.345-.797-.896-1.195-2.083-1.195-3.56v-.114zm1.634.194c0 1.054.243 1.901.73 2.54.492.638 1.148.958 1.969.958.826 0 1.482-.323 1.968-.967.487-.651.73-1.559.73-2.725 0-1.043-.25-1.886-.747-2.531-.492-.65-1.149-.976-1.969-.976-.803 0-1.45.32-1.942.958-.492.639-.739 1.553-.739 2.743zm12.446-.123h-4.29V198.9h4.29v1.328zm8.657-3.419h-3.19V205h-1.627v-8.191h-3.128v-1.319h7.945v1.319zm.782 3.348c0-.931.182-1.769.545-2.513.37-.745.879-1.319 1.53-1.723.656-.404 1.403-.607 2.24-.607 1.296 0 2.341.449 3.138 1.345.803.897 1.204 2.089 1.204 3.577v.115c0 .925-.178 1.757-.536 2.496a4.012 4.012 0 01-1.52 1.714c-.656.41-1.412.615-2.268.615-1.289 0-2.335-.448-3.138-1.345-.796-.896-1.195-2.083-1.195-3.56v-.114zm1.635.194c0 1.054.243 1.901.73 2.54.492.638 1.148.958 1.968.958.826 0 1.483-.323 1.969-.967.486-.651.73-1.559.73-2.725 0-1.043-.25-1.886-.748-2.531-.492-.65-1.148-.976-1.968-.976-.803 0-1.45.32-1.943.958-.492.639-.738 1.553-.738 2.743zM107.934 205h-1.626v-8.165h-4.377V205h-1.635v-9.51h7.638V205zm2.179-4.843c0-.931.182-1.769.545-2.513.369-.745.879-1.319 1.53-1.723.656-.404 1.403-.607 2.241-.607 1.295 0 2.341.449 3.137 1.345.803.897 1.205 2.089 1.205 3.577v.115c0 .925-.179 1.757-.537 2.496a4.008 4.008 0 01-1.52 1.714c-.656.41-1.412.615-2.268.615-1.289 0-2.335-.448-3.137-1.345-.797-.896-1.196-2.083-1.196-3.56v-.114zm1.635.194c0 1.054.243 1.901.73 2.54.492.638 1.148.958 1.968.958.826 0 1.483-.323 1.969-.967.486-.651.73-1.559.73-2.725 0-1.043-.249-1.886-.748-2.531-.492-.65-1.148-.976-1.968-.976-.803 0-1.45.32-1.943.958-.492.639-.738 1.553-.738 2.743zm10.837-4.861v8.183h3.48v-8.183h1.626v8.183h3.472v-8.183h1.635V205H120.95v-9.51h1.635zm20.575 0V205h-1.635v-8.165h-3.234l-.193 3.56c-.106 1.634-.381 2.803-.827 3.506-.439.703-1.139 1.07-2.1 1.099h-.65v-1.433l.465-.035c.528-.058.906-.363 1.134-.914.229-.551.375-1.57.44-3.058l.175-4.07h6.425zm2.18 4.667c0-.931.181-1.769.545-2.513.369-.745.879-1.319 1.529-1.723.656-.404 1.403-.607 2.241-.607 1.295 0 2.341.449 3.138 1.345.803.897 1.204 2.089 1.204 3.577v.115c0 .925-.179 1.757-.536 2.496a4.01 4.01 0 01-1.521 1.714c-.656.41-1.412.615-2.267.615-1.289 0-2.335-.448-3.138-1.345-.797-.896-1.195-2.083-1.195-3.56v-.114zm1.635.194c0 1.054.243 1.901.729 2.54.492.638 1.149.958 1.969.958.826 0 1.482-.323 1.969-.967.486-.651.729-1.559.729-2.725 0-1.043-.249-1.886-.747-2.531-.492-.65-1.148-.976-1.969-.976-.802 0-1.45.32-1.942.958-.492.639-.738 1.553-.738 2.743zM168.271 205h-1.626v-4.061h-4.369V205h-1.634v-9.51h1.634v4.122h4.369v-4.122h1.626V205zm6.565.176c-1.289 0-2.338-.422-3.147-1.266-.808-.849-1.212-1.983-1.212-3.401v-.299c0-.943.178-1.784.536-2.522.363-.745.867-1.325 1.511-1.741a3.805 3.805 0 012.11-.633c1.236 0 2.197.408 2.883 1.222.685.815 1.028 1.981 1.028 3.498v.677h-6.442c.023.937.295 1.696.817 2.276.527.575 1.195.862 2.004.862.574 0 1.06-.118 1.459-.352a3.666 3.666 0 001.046-.932l.993.774c-.797 1.224-1.992 1.837-3.586 1.837zm-.202-8.526c-.656 0-1.207.241-1.653.721-.445.475-.72 1.143-.826 2.004h4.764v-.123c-.047-.826-.27-1.465-.668-1.916-.398-.457-.938-.686-1.617-.686zm17.332.159h-3.191V205h-1.626v-8.191h-3.128v-1.319h7.945v1.319zm7.312 8.191c-.093-.188-.17-.521-.228-1.002-.756.785-1.658 1.178-2.707 1.178-.938 0-1.708-.264-2.312-.791-.597-.533-.896-1.207-.896-2.022 0-.99.375-1.758 1.125-2.302.756-.551 1.816-.827 3.181-.827h1.582v-.747c0-.568-.169-1.019-.509-1.353-.34-.34-.841-.51-1.503-.51-.58 0-1.067.147-1.459.439-.393.293-.589.648-.589 1.064h-1.635c0-.475.167-.932.501-1.371.34-.445.797-.797 1.371-1.055a4.64 4.64 0 011.907-.387c1.096 0 1.955.276 2.576.827.621.545.943 1.297.966 2.258v4.377c0 .873.112 1.568.334 2.083V205h-1.705zm-2.698-1.239c.51 0 .993-.132 1.45-.396.457-.263.788-.606.993-1.028v-1.951h-1.274c-1.992 0-2.988.583-2.988 1.749 0 .51.17.908.51 1.195.339.287.776.431 1.309.431zm9.58-2.813h-1.186V205h-1.635v-9.51h1.635v4.026h1.063l3.199-4.026h1.969l-3.762 4.571 4.078 4.939h-2.065l-3.296-4.052zm6.794 3.199c0-.281.082-.515.246-.703.17-.187.422-.281.756-.281s.586.094.756.281a.988.988 0 01.264.703c0 .27-.088.496-.264.677-.17.182-.422.273-.756.273s-.586-.091-.756-.273a.971.971 0 01-.246-.677zm4.746 0c0-.281.082-.515.246-.703.17-.187.422-.281.756-.281s.586.094.756.281a.988.988 0 01.264.703c0 .27-.088.496-.264.677-.17.182-.422.273-.756.273s-.586-.091-.756-.273a.971.971 0 01-.246-.677zm4.746 0c0-.281.082-.515.246-.703.17-.187.422-.281.756-.281s.586.094.756.281a.988.988 0 01.264.703c0 .27-.088.496-.264.677-.17.182-.422.273-.756.273s-.586-.091-.756-.273a.971.971 0 01-.246-.677z" fill="#000"/><path d="M41.256 230h-1.32v-8.873h-4.908V230h-1.312v-9.953h7.54V230zm1.86-3.767c0-.724.14-1.376.423-1.955.287-.578.684-1.025 1.19-1.34.51-.314 1.091-.471 1.743-.471 1.007 0 1.82.348 2.44 1.046.624.697.937 1.624.937 2.782v.089c0 .72-.14 1.367-.417 1.941a3.112 3.112 0 01-1.183 1.333c-.51.319-1.098.479-1.764.479-1.002 0-1.816-.349-2.44-1.046-.62-.697-.93-1.62-.93-2.769v-.089zm1.27.151c0 .82.19 1.479.568 1.975.383.497.893.745 1.531.745.643 0 1.153-.25 1.532-.751.378-.506.567-1.213.567-2.12 0-.811-.194-1.467-.581-1.968-.383-.506-.893-.759-1.531-.759-.625 0-1.128.248-1.511.745s-.574 1.208-.574 2.133zM57.485 230H56.22v-6.351h-3.405V230h-1.271v-7.396h5.94V230zm8.279-3.616c0 1.125-.258 2.032-.773 2.72-.515.689-1.212 1.033-2.092 1.033-.897 0-1.604-.285-2.119-.855v3.562h-1.264v-10.24h1.155l.061.82c.515-.638 1.23-.957 2.147-.957.889 0 1.59.335 2.105 1.005.52.67.78 1.602.78 2.796v.116zm-1.265-.144c0-.834-.178-1.492-.533-1.975-.356-.483-.843-.725-1.463-.725-.766 0-1.34.34-1.723 1.019v3.534c.379.674.957 1.011 1.737 1.011.606 0 1.087-.239 1.442-.717.36-.483.54-1.199.54-2.147zm2.543-.007c0-.724.141-1.376.424-1.955.287-.578.683-1.025 1.19-1.34.51-.314 1.09-.471 1.742-.471 1.008 0 1.821.348 2.44 1.046.625.697.937 1.624.937 2.782v.089c0 .72-.139 1.367-.417 1.941a3.112 3.112 0 01-1.182 1.333c-.51.319-1.099.479-1.764.479-1.002 0-1.816-.349-2.44-1.046-.62-.697-.93-1.62-.93-2.769v-.089zm1.272.151c0 .82.189 1.479.567 1.975.383.497.893.745 1.531.745.643 0 1.153-.25 1.531-.751.379-.506.568-1.213.568-2.12 0-.811-.194-1.467-.581-1.968-.383-.506-.894-.759-1.532-.759-.624 0-1.128.248-1.51.745-.383.497-.575 1.208-.575 2.133zm10.294-3.357c.93 0 1.673.313 2.229.937.56.62.84 1.438.84 2.454v.116c0 .697-.134 1.322-.403 1.873a3.012 3.012 0 01-1.162 1.279c-.501.3-1.08.451-1.736.451-.993 0-1.793-.331-2.4-.991-.605-.666-.909-1.557-.909-2.673v-.616c0-1.554.287-2.789.862-3.705.579-.916 1.43-1.474 2.556-1.674.638-.114 1.07-.253 1.292-.417a.796.796 0 00.335-.677h1.04c0 .569-.13 1.014-.39 1.333-.255.319-.666.544-1.23.677l-.944.211c-.752.178-1.317.479-1.695.903-.374.419-.618.98-.732 1.681.67-.774 1.486-1.162 2.447-1.162zm-.246 1.039c-.62 0-1.112.21-1.476.629-.365.415-.547.992-.547 1.73v.109c0 .793.182 1.422.547 1.887.369.46.866.69 1.49.69.629 0 1.126-.232 1.49-.697.365-.465.547-1.144.547-2.037 0-.697-.184-1.256-.554-1.675-.364-.424-.863-.636-1.497-.636zm7.158 4.081l1.722-5.543h1.354l-2.974 8.538c-.46 1.23-1.192 1.845-2.194 1.845l-.24-.02-.471-.089v-1.025l.342.027c.428 0 .76-.087.998-.26.241-.173.44-.49.594-.95l.28-.752-2.638-7.314h1.38l1.847 5.543zm8.996-5.543h1.264V230h-1.264v-5.394L91.103 230H89.84v-7.396h1.264v5.4l3.412-5.4zm.341-2.694c0 .552-.189.996-.567 1.333-.374.333-.866.499-1.477.499-.61 0-1.105-.168-1.483-.506-.378-.337-.567-.779-.567-1.326h1.032c0 .319.087.57.26.752.173.178.426.267.758.267.32 0 .568-.089.746-.267.182-.178.273-.428.273-.752h1.025zm8.45 3.719h-2.482V230H99.56v-6.371h-2.434v-1.025h6.18v1.025zm3.753 6.508c-1.003 0-1.819-.328-2.448-.985-.629-.66-.943-1.542-.943-2.645v-.233c0-.733.139-1.387.417-1.962a3.288 3.288 0 011.176-1.353 2.957 2.957 0 011.64-.492c.962 0 1.709.317 2.243.95.533.633.799 1.54.799 2.721v.526h-5.01c.018.729.23 1.319.635 1.771.411.446.93.669 1.559.669.447 0 .825-.091 1.135-.273.31-.182.581-.424.813-.725l.773.602c-.62.952-1.55 1.429-2.789 1.429zm-.158-6.631c-.51 0-.938.187-1.285.56-.346.37-.56.889-.642 1.559h3.705v-.096c-.037-.642-.21-1.139-.52-1.49-.31-.355-.729-.533-1.258-.533zm79.058 6.631c-1.003 0-1.818-.328-2.447-.985-.629-.66-.944-1.542-.944-2.645v-.233c0-.733.139-1.387.417-1.962a3.295 3.295 0 011.176-1.353 2.96 2.96 0 011.641-.492c.961 0 1.709.317 2.242.95.533.633.8 1.54.8 2.721v.526h-5.011c.018.729.23 1.319.636 1.771.41.446.929.669 1.558.669.447 0 .825-.091 1.135-.273.31-.182.581-.424.814-.725l.772.602c-.62.952-1.549 1.429-2.789 1.429zm-.157-6.631c-.511 0-.939.187-1.285.56-.347.37-.561.889-.643 1.559h3.705v-.096c-.036-.642-.21-1.139-.519-1.49-.31-.355-.73-.533-1.258-.533zm5.817-.902v6.364h2.707v-6.364h1.265v6.364h2.7v-6.364h1.271v6.364h1.04l-.123 3.226h-1.135V230h-8.996v-7.396h1.271zm13.426 7.533c-1.003 0-1.818-.328-2.447-.985-.629-.66-.944-1.542-.944-2.645v-.233c0-.733.139-1.387.417-1.962a3.295 3.295 0 011.176-1.353 2.96 2.96 0 011.641-.492c.961 0 1.709.317 2.242.95.533.633.8 1.54.8 2.721v.526h-5.011c.018.729.23 1.319.636 1.771.41.446.929.669 1.558.669.447 0 .825-.091 1.135-.273.31-.182.581-.424.814-.725l.772.602c-.62.952-1.549 1.429-2.789 1.429zm-.157-6.631c-.511 0-.939.187-1.285.56-.347.37-.561.889-.643 1.559h3.705v-.096c-.036-.642-.21-1.139-.519-1.49-.31-.355-.73-.533-1.258-.533zm-2.208-2.878c0-.205.061-.376.184-.513.128-.141.315-.212.561-.212.246 0 .433.071.56.212a.722.722 0 01.192.513.722.722 0 01-.192.513c-.127.136-.314.205-.56.205-.246 0-.433-.069-.561-.205a.739.739 0 01-.184-.513zm2.939.014c0-.205.062-.379.185-.52.127-.141.314-.212.56-.212.246 0 .433.071.561.212a.75.75 0 01.191.52.722.722 0 01-.191.512c-.128.137-.315.205-.561.205-.246 0-.433-.068-.56-.205a.735.735 0 01-.185-.512zm13.501 5.742c0 1.125-.257 2.032-.772 2.72-.515.689-1.213 1.033-2.092 1.033-.898 0-1.604-.285-2.119-.855v3.562h-1.265v-10.24h1.155l.062.82c.515-.638 1.23-.957 2.146-.957.889 0 1.591.335 2.106 1.005.519.67.779 1.602.779 2.796v.116zm-1.265-.144c0-.834-.177-1.492-.533-1.975-.355-.483-.843-.725-1.463-.725-.765 0-1.339.34-1.722 1.019v3.534c.378.674.957 1.011 1.736 1.011.606 0 1.087-.239 1.442-.717.36-.483.54-1.199.54-2.147zM225.3 230c-.073-.146-.132-.406-.178-.779-.588.61-1.29.916-2.105.916-.73 0-1.329-.205-1.798-.616a2.014 2.014 0 01-.698-1.572c0-.77.292-1.367.875-1.791.588-.428 1.413-.642 2.475-.642h1.231v-.581c0-.442-.133-.793-.397-1.053-.264-.264-.654-.397-1.169-.397-.451 0-.829.114-1.135.342-.305.228-.458.504-.458.827h-1.271c0-.369.13-.724.39-1.066.264-.346.619-.62 1.066-.82a3.604 3.604 0 011.483-.301c.853 0 1.52.214 2.003.642.483.424.734 1.01.752 1.757v3.405c0 .679.087 1.219.26 1.62V230H225.3zm-2.099-.964a2.22 2.22 0 001.128-.307c.356-.206.613-.472.773-.8v-1.518h-.992c-1.549 0-2.324.454-2.324 1.36 0 .397.132.707.397.93.264.223.603.335 1.018.335zm9.215-4.409a.974.974 0 00-.396-.82c-.265-.205-.627-.308-1.087-.308-.447 0-.821.116-1.121.349-.297.232-.445.506-.445.82h-1.258c0-.643.269-1.169.807-1.579.538-.41 1.21-.615 2.017-.615.866 0 1.54.186 2.023.56.483.369.725.898.725 1.586 0 .333-.101.638-.301.916-.201.278-.485.499-.855.663.862.292 1.292.866 1.292 1.723 0 .679-.262 1.217-.786 1.613-.524.397-1.223.595-2.098.595-.853 0-1.557-.207-2.113-.622-.551-.419-.827-.985-.827-1.696h1.258c0 .361.159.67.478.93.324.255.725.383 1.204.383.483 0 .872-.112 1.169-.335a1.04 1.04 0 00.444-.868c0-.415-.125-.711-.376-.889-.246-.182-.631-.273-1.155-.273h-1.265v-1.067h1.374c.861-.022 1.292-.378 1.292-1.066z" fill="#999"/><path d="M118.953 224.627a.974.974 0 00-.396-.82c-.265-.205-.627-.308-1.087-.308-.447 0-.821.116-1.121.349-.297.232-.445.506-.445.82h-1.258c0-.643.269-1.169.807-1.579.538-.41 1.21-.615 2.017-.615.866 0 1.54.186 2.023.56.483.369.725.898.725 1.586 0 .333-.1.638-.301.916-.201.278-.485.499-.855.663.862.292 1.292.866 1.292 1.723 0 .679-.262 1.217-.786 1.613-.524.397-1.223.595-2.098.595-.852 0-1.557-.207-2.113-.622-.551-.419-.827-.985-.827-1.696h1.258c0 .361.16.67.479.93.323.255.724.383 1.203.383.483 0 .872-.112 1.169-.335a1.04 1.04 0 00.444-.868c0-.415-.125-.711-.376-.889-.246-.182-.631-.273-1.155-.273h-1.265v-1.067h1.374c.861-.022 1.292-.378 1.292-1.066zm7.609 5.373c-.073-.146-.133-.406-.178-.779-.588.61-1.29.916-2.106.916-.729 0-1.328-.205-1.798-.616a2.016 2.016 0 01-.697-1.572c0-.77.292-1.367.875-1.791.588-.428 1.413-.642 2.475-.642h1.23v-.581c0-.442-.132-.793-.396-1.053-.265-.264-.654-.397-1.169-.397-.451 0-.83.114-1.135.342-.305.228-.458.504-.458.827h-1.271c0-.369.129-.724.389-1.066.265-.346.62-.62 1.067-.82a3.6 3.6 0 011.483-.301c.852 0 1.52.214 2.003.642.483.424.734 1.01.752 1.757v3.405c0 .679.087 1.219.26 1.62V230h-1.326zm-2.099-.964c.396 0 .772-.102 1.128-.307.355-.206.613-.472.772-.8v-1.518h-.991c-1.549 0-2.324.454-2.324 1.36 0 .397.132.707.396.93.265.223.604.335 1.019.335zm9.926-5.387h-3.411V230h-1.272v-7.396h4.683v1.045zm7.348 2.735c0 1.125-.257 2.032-.772 2.72-.515.689-1.212 1.033-2.092 1.033-.898 0-1.604-.285-2.119-.855v3.562h-1.265v-10.24h1.156l.061.82c.515-.638 1.231-.957 2.147-.957.888 0 1.59.335 2.105 1.005.52.67.779 1.602.779 2.796v.116zm-1.264-.144c0-.834-.178-1.492-.534-1.975-.355-.483-.843-.725-1.462-.725-.766 0-1.34.34-1.723 1.019v3.534c.378.674.957 1.011 1.736 1.011.606 0 1.087-.239 1.443-.717.36-.483.54-1.199.54-2.147zm5.215 1.907l1.723-5.543h1.354l-2.974 8.538c-.46 1.23-1.192 1.845-2.194 1.845l-.24-.02-.471-.089v-1.025l.342.027c.428 0 .761-.087.998-.26.241-.173.439-.49.594-.95l.281-.752-2.639-7.314h1.381l1.845 5.543zm8.279-3.52a.972.972 0 00-.397-.82c-.264-.205-.626-.308-1.087-.308-.446 0-.82.116-1.121.349-.296.232-.444.506-.444.82h-1.258c0-.643.269-1.169.807-1.579.538-.41 1.21-.615 2.016-.615.866 0 1.541.186 2.024.56.483.369.724.898.724 1.586 0 .333-.1.638-.3.916-.201.278-.486.499-.855.663.862.292 1.292.866 1.292 1.723 0 .679-.262 1.217-.786 1.613-.524.397-1.224.595-2.099.595-.852 0-1.556-.207-2.112-.622-.551-.419-.827-.985-.827-1.696h1.258c0 .361.159.67.478.93.324.255.725.383 1.203.383.483 0 .873-.112 1.169-.335.297-.223.445-.513.445-.868 0-.415-.126-.711-.376-.889-.246-.182-.631-.273-1.156-.273h-1.264v-1.067h1.374c.861-.022 1.292-.378 1.292-1.066zm7.827-2.023h1.265V230h-1.265v-5.394L158.383 230h-1.265v-7.396h1.265v5.4l3.411-5.4zm8.791 1.025h-2.481V230h-1.265v-6.371h-2.434v-1.025h6.18v1.025zm2.611 1.524h1.921c.839.009 1.502.228 1.989.657.488.428.732 1.009.732 1.743 0 .738-.251 1.33-.752 1.777-.501.447-1.176.67-2.024.67h-3.13v-7.396h1.264v2.549zm0 1.033v2.782h1.88c.474 0 .841-.121 1.101-.363.26-.246.389-.581.389-1.004 0-.411-.127-.746-.382-1.005-.251-.265-.604-.401-1.06-.41h-1.928z" fill="#356EFF"/><path d="M113.929 231.367h64.531v.684h-64.531v-.684z" fill="#356EFF"/><g clip-path="url(#clip0)"><path d="M248.721 137.801c-2.019-5.179-3.526-10.677-5.171-16.483-1.111-3.915-2.899-8.292-6.772-9.523-3.773-1.199-7.833 1.286-10.149 4.492-2.321 3.205-3.487 7.087-5.473 10.512-3.598 6.202-9.962 8.803-15.226 3.349-7.52-7.791-10.903-18.408-15.672-27.909-3.46-6.895-6.359-14.972-10.722-21.328-6.65-9.693-15.77-17.957-27.894-17.957-7.685 1.166-14.457 7.967-19.044 16.473-4.582 8.506-7.256 18.617-9.533 28.706-4.142 18.347-7.179 37.118-10.21 55.867l152.99-1.781c-.611.005-4.357-5.004-5.078-5.696-5.874-5.686-9.401-11.932-12.046-18.722z" fill="#DCE6EF"/><path d="M219.682 146.543c-.303 5.944-6.772 16.336-12.718 16.039-5.947-.297-9.121-11.178-8.818-17.122.302-5.943 6.634-35.689 12.58-35.392 5.947.297 9.258 30.532 8.956 36.475z" fill="#6AA5FE"/><path d="M210.44 113.934l-2.998 48.169" stroke="#1A55B5" stroke-width=".868" stroke-miterlimit="10" stroke-linecap="round" stroke-linejoin="round"/><path d="M206.072 145.306c-1.353 2.975-2.387 6.092-3.009 9.347-.313 1.65-.517 3.436.231 4.937.815 1.644 2.624 2.601 4.434 2.898 4.423.726 8.84-1.979 11.431-5.636 2.591-3.65 3.713-8.115 4.742-12.475.808-3.431 1.606-6.911 3.135-10.111.655-1.369 4.494-6.664 2.679-8.033-2.481-1.952-9.67.17-14.275 5.196-3.79 4.134-7.052 8.791-9.368 13.877z" fill="#FFC957"/><path d="M207.728 162.483s5.336-20.767 18.225-32.676" stroke="#6AA5FE" stroke-width=".868" stroke-miterlimit="10" stroke-linecap="round" stroke-linejoin="round"/><path d="M237.334 140.407c-.457.819-1.315 1.375-2.091 1.815-.957.538-1.98 1.011-2.964 1.473-1.266.588-2.575 1.199-3.785 1.957a12.75 12.75 0 00-2.321 1.848c1.039-2.359 2.249-4.415 3.68-6.257 1.881-2.419 3.812-3.645 5.743-3.645h.132c.594.016 1.061.165 1.38.44.655.56.627 1.643.226 2.369zM239.49 153.834c-.764.544-1.777.682-2.668.748-1.094.076-2.222.071-3.311.06-1.397-.011-2.844-.022-4.258.148a12.582 12.582 0 00-2.888.677c1.948-1.688 3.928-3.03 6.007-4.08 2.74-1.385 5.006-1.666 6.75-.841.038.016.082.038.121.06.533.27.891.605 1.061.99.347.786-.143 1.759-.814 2.238z" fill="#1A55B5"/><path d="M234.402 160.443c-.633-.088-1.205-.495-1.678-.88-.583-.473-1.139-1.006-1.678-1.518-.693-.659-1.402-1.341-2.189-1.918a8.794 8.794 0 00-1.755-1.018c1.761.072 3.372.336 4.902.787 2.007.593 3.273 1.517 3.751 2.743.011.028.022.055.033.088.138.385.16.715.066.99-.198.55-.891.803-1.452.726z" fill="#1A55B5"/><path d="M219.929 162.598s.061-12.706 15.584-23.494M219.929 162.598s4.769-10.21 17.691-10.21M226.965 155.23s2.503-.181 7.729 3.756" stroke="#2A294F" stroke-width=".78" stroke-miterlimit="10" stroke-linecap="round" stroke-linejoin="round"/><path d="M86.528 162.708c-3.586-13.559-7.195-27.123-11.414-40.252-2.376-7.406-5.006-14.779-8.653-20.701-3.647-5.921-8.477-10.293-13.328-10.265-7.47 1.446-12.295 8.819-15.458 16.989-2.074 5.356-3.08 11.843-4.543 17.507-2.02 7.796-3.081 16.28-6.96 23.097-2.716 4.778-6.892 3.558-9.708-.731-1.551-2.37-2.651-5.185-4.39-7.345-1.738-2.161-4.483-3.569-6.689-2.205-2.272 1.402-2.948 4.943-3.256 8.055-.451 4.613-.853 8.973-1.596 13.157a61.73 61.73 0 01-.539 2.705h86.534v-.011z" fill="#DCE6EF"/><path d="M54.442 143.992c-2.245-2.584-5.083-4.816-5.974-8.077-.655-2.38-.138-4.904.115-7.362.253-2.457.165-5.174-1.424-7.065-1.31-1.561-3.383-2.238-5.375-2.667-1.99-.428-4.07-.698-5.836-1.71-2.871-1.643-2.3-4.442-3.84-6.894-1.727-2.755-5.753-6.268-9.197-4.437-3.653 1.935-3.075 7.818-.644 10.413 1.612 1.721 3.675 3.376 3.912 5.718.357 3.53-3.692 6.714-2.58 10.084.825 2.491 3.96 3.343 5.511 5.46 1.535 2.095 1.227 5.025.32 7.455-.903 2.431-2.327 4.679-2.889 7.214-1.15 5.179 2.916 8.764 7.553 9.919 4.258 1.061 13.444.561 13.444.561 3.279-1.144 6.915-4.025 8.714-7.17 1.364-2.375 1.55-5.388.495-7.918-.54-1.303-1.37-2.441-2.305-3.524z" fill="#FFC957"/><path d="M26.987 111.366s15.683 24.214 17.388 51.1" stroke="#6AA5FE" stroke-miterlimit="10" stroke-linecap="round" stroke-linejoin="round"/><path d="M13.02 144.025c.242-.209.594-.319 1.046-.33h.098c1.458 0 2.921.93 4.34 2.76 1.084 1.391 1.997 2.947 2.784 4.729a9.607 9.607 0 00-1.755-1.397c-.913-.572-1.903-1.033-2.86-1.479-.748-.346-1.518-.703-2.244-1.116-.589-.33-1.238-.753-1.58-1.369-.307-.55-.324-1.369.171-1.798zM10.605 154.279c.132-.291.402-.544.803-.748.028-.016.061-.027.088-.043 1.32-.627 3.037-.413 5.105.637 1.574.798 3.07 1.809 4.539 3.085a9.54 9.54 0 00-2.184-.512c-1.073-.126-2.168-.121-3.224-.115-.825.005-1.672.011-2.503-.049-.67-.05-1.44-.154-2.013-.561-.506-.363-.875-1.094-.61-1.694z" fill="#6AA5FE"/><path d="M13.966 160.415c-.071-.203-.055-.456.05-.747.005-.022.016-.044.022-.066.363-.93 1.315-1.628 2.838-2.079a15.196 15.196 0 013.708-.594 6.703 6.703 0 00-1.326.77c-.594.44-1.133.957-1.655 1.452-.408.39-.826.791-1.266 1.149-.357.291-.786.599-1.265.665-.429.061-.957-.132-1.106-.55z" fill="#6AA5FE"/><path d="M26.008 162.598s-.044-9.611-11.783-17.765M26.008 162.598s-3.603-7.719-13.378-7.719M20.688 157.028s-1.892-.137-5.842 2.843" stroke="#2A294F" stroke-width=".78" stroke-miterlimit="10" stroke-linecap="round" stroke-linejoin="round"/><path d="M151.95 162.598H48.446a5.197 5.197 0 01-5.198-5.196V17.122a5.196 5.196 0 015.198-5.196H151.95a5.196 5.196 0 015.198 5.196v140.286a5.195 5.195 0 01-5.198 5.19z" fill="#6AA5FE"/><path d="M43.253 48.632v108.776a5.197 5.197 0 005.198 5.196h103.504a5.196 5.196 0 005.198-5.196v-21.471l-113.9-87.305z" fill="#527EE9"/><path d="M148.407 155.648H51.994a2.124 2.124 0 01-2.123-2.122V20.998c0-1.171.951-2.123 2.123-2.123h96.413c1.172 0 2.124.952 2.124 2.123v132.528a2.124 2.124 0 01-2.124 2.122z" fill="#F3F4F6"/><path d="M108.834 9.078c.006-.143.022-.28.022-.43 0-4.777-3.878-8.653-8.658-8.653-4.78 0-8.658 3.876-8.658 8.654 0 .143.016.286.022.429H78.838v13.19h42.72V9.078h-12.724z" fill="#1A55B5"/><path d="M78.844 9.078v13.19h42.714L78.843 9.078z" fill="#2C6BC6"/><path d="M102.069 13.136a4.86 4.86 0 10-3.743-8.972 4.86 4.86 0 00-2.617 6.357 4.864 4.864 0 006.36 2.615z" fill="#527EE9"/><path d="M96.765 5.218a4.86 4.86 0 106.876 6.873l-6.876-6.873z" fill="#6AA5FE"/><path d="M121.563 22.268h-42.72v.907h42.72v-.907z" fill="#CDE1F9"/><path d="M161.78 54.421c-.336.258-3.389 2.062-3.389 2.062l-2.167-2.771.643-3.162 4.665.292.814 2.358c.193.556-.154.902-.566 1.221z" fill="#FE9280"/><path d="M161.527 50.836l.704 2.068-2.151.863a1.974 1.974 0 01-2.745-2.05l.138-1.14 4.054.26z" fill="#E86767"/><path d="M160.47 53.602l1.865.27 1.023-1.749a.682.682 0 00-.209-.935.683.683 0 00-.935.21l-1.744 2.204z" fill="#FF746F"/><path d="M159.062 61.08l-3.845.973-1.375 11.128 4.5.181.72-12.282z" fill="#fff"/><path d="M209.615 70.113l-6.722-.847 1.54-12.211 6.722.846a6.16 6.16 0 015.342 6.879 6.163 6.163 0 01-6.882 5.333z" fill="#FE9280"/><path opacity=".2" d="M209.967 67.331l-6.722-.847-.352 2.782 6.722.847a6.163 6.163 0 006.898-6.752c-.974 2.629-3.652 4.338-6.546 3.97z" fill="#777470"/><path d="M202.074 69.167l-71.308-9.193 1.535-12.217 71.313 9.193-1.54 12.217z" fill="#FFC957"/><path d="M118.059 52.167l12.707 7.807 1.535-12.217-14.242 4.41z" fill="#FFF4DD"/><path opacity=".2" d="M118.059 52.167l12.707 7.807.374-2.99-13.081-4.817z" fill="#777470"/><path d="M122.3 50.858l-4.241 1.309 3.785 2.326.456-3.635z" fill="#2A294F"/><path d="M209.521 57.695l-5.9-.742-1.539 12.214 5.9.742 1.539-12.214z" fill="#D3EAF5"/><path d="M209.59 57.175l-2.019-.254-1.67 13.262 2.019.254 1.67-13.262z" fill="#D3EAF5"/><path opacity=".2" d="M205.957 69.656l-75.191-9.682.374-2.99 75.197 9.681-.38 2.991z" fill="#777470"/><path opacity=".05" d="M207.197 60.673L132 50.985l.374-2.985 75.197 9.682-.374 2.991z" fill="#777470"/><path opacity=".15" d="M208.428 66.381l-2.02-.254-.51 4.053 2.019.254.511-4.053z" fill="#777470"/><path d="M178.678 93.898l1.013-2.6 3.394-.264c.627-.066 1.177.313 1.237.846.055.534-.401 1.023-1.028 1.089l-4.616.93z" fill="#E86767"/><path d="M176.929 91.308l1.749 2.59 3.328-.67-3.707-5.548-.721.472a2.279 2.279 0 00-.649 3.156z" fill="#FF746F"/><path d="M180.208 49.594c-3.46-5.037-12.168-3.695-11.943 4.376 0 .022 0 .05.006.072-.022 1.022.011 2.067-.253 3.03-.138.489-.369.94-.726 1.264-.352.33-.809.528-1.287.627-.485.11-1.013.132-1.552.242a4.936 4.936 0 00-1.551.593c-.963.561-1.749 1.48-2.107 2.563-.687 2.155-.137 4.651 1.486 6.273.407.396.88.737 1.402.979.517.253 1.106.346 1.584.445 1.007.22 2.025.511 3.059.715l.027-.088c-.957-.44-1.897-.902-2.91-1.254-.528-.187-.979-.291-1.391-.544a4.681 4.681 0 01-1.106-.896 6.361 6.361 0 01-1.37-2.519c-.264-.934-.319-1.94-.055-2.87.259-.923.881-1.726 1.706-2.26.407-.269.869-.461 1.347-.582.484-.121 1.012-.17 1.546-.313.534-.138 1.062-.407 1.452-.825.396-.413.622-.946.732-1.474a6.55 6.55 0 00.126-1.127c.094 1.507-.038 3.035-1.584 3.612-.891.336-1.76.336-2.591.886-.814.544-1.457 1.347-1.771 2.27-.974 2.854 1.557 6.549 4.533 6.868 1.232.132 2.464.428 3.68.648.341.06 5.127 1.04 5.165.93l5.539-16.39-1.193-5.251z" fill="#1A55B5"/><path d="M179.944 90.137l11.232-7.835-1.567-4.338-11.31 9.71 1.645 2.463z" fill="#fff"/><path d="M188.173 81.23a2.25 2.25 0 104.07-1.924 2.25 2.25 0 00-4.07 1.924z" fill="#fff"/><path d="M188.734 82.038l3.201-3.166-9.247-10.397a2.9 2.9 0 00-4.367-.336c-1.254 1.237-1.117 4.684.286 5.751l10.127 8.148z" fill="#fff"/><path d="M173.091 67.671l3.787.32.672-7.926-3.787-.321-.672 7.927z" fill="#FF746F"/><path d="M155.85 71.499a2.25 2.25 0 00-2.096 2.397 2.25 2.25 0 002.398 2.095 2.248 2.248 0 002.096-2.398 2.245 2.245 0 00-2.398-2.094z" fill="#fff"/><path d="M154.431 71.828l2.283 4.053 13.944-4.053c1.711-.434 2.635-3.667 1.964-5.294a2.896 2.896 0 00-4.153-1.386l-14.038 6.68z" fill="#fff"/><path d="M175.774 87.46l7.058-17.309a2.45 2.45 0 00-2.047-3.024l-10.132-2.298a2.447 2.447 0 00-2.778 2.37l-3.466 18.875 11.365 1.386z" fill="#fff"/><path d="M174.635 50.517c-1.171 1.48-3.273 2.1-3.768 3.459l-.104.627v.087l-.011-.021-.319 1.896a4.414 4.414 0 008.707 1.468l.364-2.138c-.259-2.167-4.231-2.337-4.869-5.378z" fill="#FF746F"/><path d="M178.673 57.027a1.026 1.026 0 102.023.342 1.026 1.026 0 00-2.023-.342z" fill="#FF746F"/><path d="M169.399 86.684l5.077 12.53-4.852 58.54h-3.729l-4.39-58.902 2.899-12.778 4.995.61z" fill="#1A55B5"/><path d="M169.398 86.685v12.53l22.856 58.539h2.8l-12.228-60.75-7.052-9.544-6.376-.775z" fill="#527EE9"/><path d="M167.985 160.811h-1.562v-3.057h2.024l-.462 3.057z" fill="#FF746F"/><path d="M166.373 160.118l.913.402.842-.402.764 2.48h-7.046l2.646-1.237 1.881-1.243z" fill="#2A294F"/><path d="M194.097 160.811h1.557l-.918-3.057h-2.025l1.386 3.057z" fill="#FF746F"/><path d="M195.709 160.118l-.913.402-.847-.402-.759 2.48h7.046l-2.646-1.237-1.881-1.243z" fill="#2A294F"/><path d="M171.269 74.27a3.195 3.195 0 01-3.196 3.194 3.194 3.194 0 110-6.389 3.195 3.195 0 013.196 3.195z" fill="#fff"/><path d="M170.944 64.917l.402 6.862 5.935-6.042-6.337-.82z" fill="#FF746F"/><path d="M183.866 51.05a5.584 5.584 0 00-1.816-1.528c-1.116-.588-2.376-.522-3.399-1.402l.798 8.055c1.468-.418 1.38 2.744-.314 1.87 0 0-3.361 1.44-4.637 4.585-.875 2.111-1.023 4.58-.792 5.988.412 2.523 2.552 3.832 4.989 3.09 1.452-.446 2.635-1.54 3.477-2.81 2.942-4.442 4.901-11.744 2.387-16.758a6.872 6.872 0 00-.693-1.09z" fill="#1A55B5"/><path d="M156.824 50.078l-.083.511a1.968 1.968 0 001.623 2.249l.836.132a1.968 1.968 0 002.25-1.622l.082-.512-4.708-.758z" fill="#FF746F"/><path d="M172.405 57.456c.212.228 1.807.991 2.039.934.251-.064.418-.327.425-.587.007-.26-.121-.505-.284-.702a1.74 1.74 0 00-1.585-.567c-.221.038-.439.127-.578.306-.143.172-.172.45-.017.616z" fill="#fff"/><path d="M.479 162.598h266.306" stroke="#2A294F" stroke-width=".78" stroke-miterlimit="10" stroke-linecap="round" stroke-linejoin="round"/><circle cx="88.5" cy="84.5" r="3.5" fill="#FF746F"/><circle cx="101.5" cy="84.5" r="3.5" fill="#FF746F"/><circle cx="114.5" cy="84.5" r="3.5" fill="#FF746F"/></g><defs><clipPath id="clip0"><path fill="#fff" d="M0 0h267v164H0z"/></clipPath></defs></svg>