<svg width="11" height="15" fill="none" xmlns="http://www.w3.org/2000/svg"><path fill-rule="evenodd" clip-rule="evenodd" d="M2.415 3.576l.417-.147a1.251 1.251 0 10-.835 0l.418.147zm2.987 7.347l-.406.176a1.25 1.25 0 00.499 2.397 1.25 1.25 0 00.336-2.454l-.43-.12zm3.173-7.347l.417-.147a1.251 1.251 0 10-.835 0l.418.147zm-5.41.796v.934c0 .428.22.825.58 1.055l1.648 1.046 1.735-.86a1.25 1.25 0 00.696-1.12V4.372A2.251 2.251 0 018.574 0a2.251 2.251 0 01.751 4.372v1.055A2.75 2.75 0 017.797 7.89l-1.698.842v1.346a2.251 2.251 0 011.65 2.168 2.252 2.252 0 01-2.253 2.25 2.25 2.25 0 01-.899-4.314V8.678L2.94 7.627a2.749 2.749 0 01-1.277-2.32v-.935A2.251 2.251 0 012.415 0a2.251 2.251 0 01.751 4.372z" fill="#999"/></svg>