<svg width="321" height="233" fill="none" xmlns="http://www.w3.org/2000/svg"><path d="M1.778 205v-12.797h4.184c1.389 0 2.432.287 3.129.861.703.575 1.055 1.424 1.055 2.549 0 .598-.17 1.128-.51 1.591-.34.457-.803.812-1.389 1.064.691.193 1.236.562 1.635 1.107.404.539.606 1.184.606 1.934 0 1.148-.372 2.05-1.116 2.707-.744.656-1.796.984-3.155.984H1.778zm1.688-5.985v4.605h2.786c.785 0 1.403-.202 1.854-.606.457-.41.686-.973.686-1.688 0-1.541-.838-2.311-2.514-2.311H3.466zm0-1.354h2.549c.738 0 1.327-.184 1.766-.554.446-.369.668-.87.668-1.503 0-.703-.205-1.212-.615-1.529-.41-.322-1.034-.483-1.872-.483H3.466v4.069zm11.048 1.108h2.47c1.077.011 1.93.293 2.557.843.627.551.94 1.298.94 2.242 0 .949-.322 1.71-.966 2.285-.645.574-1.512.861-2.602.861h-4.025v-9.51h1.626v3.279zm9.36 6.231h-1.635v-9.51h1.635V205zm-9.36-4.904v3.577h2.417c.609 0 1.08-.155 1.415-.466.334-.316.5-.747.5-1.292 0-.527-.163-.958-.491-1.292-.323-.34-.777-.516-1.363-.527h-2.478zm20.61 5.08c-1.289 0-2.338-.422-3.147-1.266-.808-.849-1.212-1.983-1.212-3.401v-.299c0-.943.178-1.784.536-2.522.363-.745.867-1.325 1.512-1.741a3.802 3.802 0 012.109-.633c1.236 0 2.197.408 2.883 1.222.685.815 1.028 1.981 1.028 3.498v.677h-6.442c.023.937.296 1.696.817 2.276.527.575 1.195.862 2.004.862.574 0 1.06-.118 1.459-.352a3.658 3.658 0 001.046-.932l.993.774c-.797 1.224-1.992 1.837-3.586 1.837zm-.202-8.526c-.656 0-1.207.241-1.652.721-.446.475-.721 1.143-.827 2.004h4.764v-.123c-.047-.826-.27-1.465-.668-1.916-.398-.457-.937-.686-1.617-.686zm7.48-1.16v8.183h3.48v-8.183h1.626v8.183h3.471v-8.183h1.635v8.183h1.336l-.158 4.148h-1.459V205H40.767v-9.51H42.4zm17.261 9.686c-1.289 0-2.338-.422-3.146-1.266-.809-.849-1.213-1.983-1.213-3.401v-.299c0-.943.178-1.784.536-2.522.363-.745.867-1.325 1.512-1.741a3.802 3.802 0 012.109-.633c1.236 0 2.197.408 2.883 1.222.685.815 1.028 1.981 1.028 3.498v.677H56.93c.023.937.296 1.696.817 2.276.527.575 1.195.862 2.004.862.574 0 1.06-.118 1.459-.352a3.659 3.659 0 001.046-.932l.993.774c-.797 1.224-1.992 1.837-3.586 1.837zm-.202-8.526c-.656 0-1.207.241-1.652.721-.446.475-.721 1.143-.827 2.004h4.764v-.123c-.047-.826-.27-1.465-.668-1.916-.398-.457-.937-.686-1.617-.686zm-2.839-3.7a.95.95 0 01.237-.659c.164-.182.405-.272.721-.272.317 0 .557.09.72.272a.93.93 0 01.247.659.927.927 0 01-.246.659c-.164.176-.404.264-.72.264-.317 0-.558-.088-.722-.264a.946.946 0 01-.237-.659zm3.78.018a.98.98 0 01.237-.668c.164-.182.404-.273.72-.273.317 0 .557.091.721.273a.959.959 0 01.246.668.93.93 0 01-.246.659c-.164.176-.404.264-.72.264-.317 0-.557-.088-.721-.264a.95.95 0 01-.238-.659zM77.495 205H75.87v-4.061h-4.368V205h-1.635v-9.51h1.635v4.122h4.368v-4.122h1.626V205zm6.566.176c-1.29 0-2.338-.422-3.147-1.266-.809-.849-1.213-1.983-1.213-3.401v-.299c0-.943.179-1.784.536-2.522.364-.745.868-1.325 1.512-1.741a3.802 3.802 0 012.11-.633c1.236 0 2.197.408 2.882 1.222.686.815 1.028 1.981 1.028 3.498v.677h-6.442c.024.937.296 1.696.817 2.276.528.575 1.196.862 2.004.862.575 0 1.061-.118 1.46-.352a3.658 3.658 0 001.045-.932l.993.774c-.796 1.224-1.992 1.837-3.586 1.837zm-.203-8.526c-.656 0-1.207.241-1.652.721-.445.475-.72 1.143-.826 2.004h4.763v-.123c-.046-.826-.269-1.465-.667-1.916-.399-.457-.938-.686-1.618-.686zm10.187 7.023l.562-.694c.633-.821.994-2.051 1.081-3.692l.15-3.797h6.126v8.183h1.222v4.122h-1.626V205h-6.636v2.795h-1.626l.009-4.122h.738zm1.925 0h4.368v-6.68h-2.927l-.097 2.268c-.1 1.892-.547 3.363-1.344 4.412zm8.587-3.516c0-.931.181-1.769.545-2.513.369-.745.878-1.319 1.529-1.723.656-.404 1.403-.607 2.241-.607 1.295 0 2.341.449 3.138 1.345.802.897 1.204 2.089 1.204 3.577v.115c0 .925-.179 1.757-.536 2.496a4.017 4.017 0 01-1.521 1.714c-.656.41-1.412.615-2.267.615-1.289 0-2.335-.448-3.138-1.345-.797-.896-1.195-2.083-1.195-3.56v-.114zm1.634.194c0 1.054.244 1.901.73 2.54.492.638 1.148.958 1.969.958.826 0 1.482-.323 1.968-.967.487-.651.73-1.559.73-2.725 0-1.043-.249-1.886-.747-2.531-.492-.65-1.149-.976-1.969-.976-.803 0-1.45.32-1.942.958-.493.639-.739 1.553-.739 2.743zm13.237-4.316c1.195 0 2.15.402 2.865 1.204.721.797 1.081 1.849 1.081 3.156v.149c0 .896-.173 1.699-.519 2.408a3.863 3.863 0 01-1.494 1.644c-.644.386-1.388.58-2.232.58-1.277 0-2.306-.425-3.085-1.275-.779-.855-1.169-2.001-1.169-3.436v-.791c0-1.998.369-3.586 1.107-4.764.745-1.178 1.84-1.895 3.288-2.153.82-.147 1.374-.325 1.661-.536a1.02 1.02 0 00.43-.87h1.336c0 .732-.167 1.303-.501 1.713-.328.411-.855.701-1.582.871l-1.213.272c-.966.229-1.693.615-2.179 1.16-.481.539-.794 1.26-.941 2.162.862-.996 1.91-1.494 3.147-1.494zm-.317 1.336c-.797 0-1.429.27-1.898.809-.469.533-.703 1.274-.703 2.223v.141c0 1.019.234 1.828.703 2.426.474.592 1.113.887 1.916.887.808 0 1.447-.298 1.916-.896.469-.598.703-1.471.703-2.619 0-.897-.237-1.614-.712-2.154-.469-.544-1.11-.817-1.925-.817zM131.074 205c-.094-.188-.17-.521-.228-1.002-.756.785-1.658 1.178-2.707 1.178-.938 0-1.708-.264-2.312-.791-.598-.533-.896-1.207-.896-2.022 0-.99.375-1.758 1.125-2.302.756-.551 1.816-.827 3.181-.827h1.582v-.747c0-.568-.17-1.019-.509-1.353-.34-.34-.841-.51-1.503-.51-.58 0-1.067.147-1.459.439-.393.293-.589.648-.589 1.064h-1.635c0-.475.167-.932.501-1.371.34-.445.797-.797 1.371-1.055a4.64 4.64 0 011.907-.387c1.096 0 1.954.276 2.576.827.621.545.943 1.297.966 2.258v4.377c0 .873.112 1.568.334 2.083V205h-1.705zm-2.698-1.239c.51 0 .993-.132 1.45-.396.457-.263.788-.606.993-1.028v-1.951h-1.274c-1.992 0-2.988.583-2.988 1.749 0 .51.17.908.509 1.195.34.287.777.431 1.31.431zm6.768 1.239v-9.51h3.709c1.265 0 2.235.223 2.909.668.679.44 1.019 1.087 1.019 1.943 0 .439-.132.837-.395 1.195-.264.351-.654.621-1.169.808.574.135 1.034.399 1.38.792.351.392.527.861.527 1.406 0 .873-.322 1.541-.967 2.004-.638.463-1.544.694-2.716.694h-4.297zm1.626-4.175v2.865h2.689c.68 0 1.187-.126 1.52-.378.34-.251.51-.606.51-1.063 0-.949-.697-1.424-2.092-1.424h-2.627zm0-1.301h2.1c1.524 0 2.285-.445 2.285-1.336 0-.89-.72-1.35-2.162-1.379h-2.223v2.715zm14.66-4.034h1.626V205h-1.626v-6.935L147.044 205h-1.626v-9.51h1.626v6.944l4.386-6.944zm12.032 0V205h-1.635v-8.165h-3.234l-.194 3.56c-.105 1.634-.38 2.803-.826 3.506-.439.703-1.139 1.07-2.1 1.099h-.651v-1.433l.466-.035c.527-.058.905-.363 1.134-.914.228-.551.375-1.57.439-3.058l.176-4.07h6.425zm8.763 0h1.626V205h-1.626v-6.935L167.839 205h-1.626v-9.51h1.626v6.944l4.386-6.944zm16.47 9.51h-1.626v-4.061h-4.368V205h-1.635v-9.51h1.635v4.122h4.368v-4.122h1.626V205zm8.772-9.51h1.626V205h-1.626v-6.935L193.081 205h-1.626v-9.51h1.626v6.944l4.386-6.944zm8.27 4.667c0-.931.182-1.769.545-2.513.369-.745.879-1.319 1.53-1.723.656-.404 1.403-.607 2.241-.607 1.295 0 2.341.449 3.137 1.345.803.897 1.205 2.089 1.205 3.577v.115c0 .925-.179 1.757-.537 2.496a4.008 4.008 0 01-1.52 1.714c-.656.41-1.412.615-2.268.615-1.289 0-2.335-.448-3.137-1.345-.797-.896-1.196-2.083-1.196-3.56v-.114zm1.635.194c0 1.054.243 1.901.73 2.54.492.638 1.148.958 1.968.958.826 0 1.483-.323 1.969-.967.486-.651.73-1.559.73-2.725 0-1.043-.249-1.886-.748-2.531-.492-.65-1.148-.976-1.968-.976-.803 0-1.45.32-1.943.958-.492.639-.738 1.553-.738 2.743zm8.35 3.322l.562-.694c.633-.821.993-2.051 1.081-3.692l.15-3.797h6.126v8.183h1.221v4.122h-1.626V205h-6.635v2.795h-1.626l.008-4.122h.739zm1.924 0h4.369v-6.68h-2.927l-.097 2.268c-.099 1.892-.548 3.363-1.345 4.412zM234.434 205h-1.626v-4.061h-4.369V205h-1.634v-9.51h1.634v4.122h4.369v-4.122h1.626V205zm2.188-4.843c0-.931.182-1.769.545-2.513.369-.745.879-1.319 1.529-1.723.657-.404 1.404-.607 2.242-.607 1.294 0 2.34.449 3.137 1.345.803.897 1.204 2.089 1.204 3.577v.115c0 .925-.178 1.757-.536 2.496a4.008 4.008 0 01-1.52 1.714c-.657.41-1.412.615-2.268.615-1.289 0-2.335-.448-3.138-1.345-.796-.896-1.195-2.083-1.195-3.56v-.114zm1.635.194c0 1.054.243 1.901.729 2.54.493.638 1.149.958 1.969.958.826 0 1.483-.323 1.969-.967.486-.651.729-1.559.729-2.725 0-1.043-.249-1.886-.747-2.531-.492-.65-1.148-.976-1.968-.976-.803 0-1.451.32-1.943.958-.492.639-.738 1.553-.738 2.743zm15.214-4.861h1.626V205h-1.626v-6.935L249.085 205h-1.626v-9.51h1.626v6.944l4.386-6.944zm.439-3.463c0 .709-.243 1.281-.729 1.714-.481.428-1.114.642-1.899.642-.785 0-1.421-.217-1.907-.651-.486-.433-.729-1.002-.729-1.705h1.327c0 .411.111.733.334.967.222.229.547.343.975.343.41 0 .73-.114.958-.343.235-.228.352-.551.352-.967h1.318zm13.491 6.065c0-.446-.17-.797-.509-1.055-.34-.264-.806-.395-1.398-.395-.574 0-1.055.149-1.441.448-.381.299-.572.65-.572 1.055h-1.617c0-.827.346-1.503 1.037-2.031.692-.527 1.556-.791 2.593-.791 1.113 0 1.981.24 2.602.721.621.475.931 1.154.931 2.039 0 .428-.129.82-.386 1.178-.258.357-.624.641-1.099.852 1.107.375 1.661 1.114 1.661 2.215 0 .873-.337 1.565-1.011 2.074-.673.51-1.573.765-2.698.765-1.096 0-2.001-.267-2.716-.8-.709-.539-1.063-1.265-1.063-2.179h1.617c0 .462.205.861.615 1.195.416.328.932.492 1.547.492.621 0 1.122-.144 1.503-.431.381-.287.571-.659.571-1.116 0-.533-.161-.914-.483-1.142-.316-.235-.812-.352-1.485-.352h-1.626v-1.371h1.766c1.108-.029 1.661-.486 1.661-1.371zm9.783 6.908c-.094-.188-.17-.521-.229-1.002-.756.785-1.658 1.178-2.707 1.178-.937 0-1.708-.264-2.311-.791-.598-.533-.897-1.207-.897-2.022 0-.99.375-1.758 1.125-2.302.756-.551 1.816-.827 3.182-.827h1.582v-.747c0-.568-.17-1.019-.51-1.353-.34-.34-.841-.51-1.503-.51-.58 0-1.066.147-1.459.439-.393.293-.589.648-.589 1.064h-1.635c0-.475.167-.932.501-1.371.34-.445.797-.797 1.371-1.055a4.645 4.645 0 011.908-.387c1.095 0 1.954.276 2.575.827.621.545.943 1.297.967 2.258v4.377c0 .873.111 1.568.334 2.083V205h-1.705zm-2.699-1.239c.51 0 .994-.132 1.451-.396.457-.263.788-.606.993-1.028v-1.951h-1.275c-1.992 0-2.988.583-2.988 1.749 0 .51.17.908.51 1.195.34.287.776.431 1.309.431zm6.539-.088l.563-.694c.633-.821.993-2.051 1.081-3.692l.149-3.797h6.126v8.183h1.222v4.122h-1.626V205h-6.636v2.795h-1.626l.009-4.122h.738zm1.925 0h4.368v-6.68h-2.926l-.097 2.268c-.1 1.892-.548 3.363-1.345 4.412zM297.838 205c-.094-.188-.17-.521-.229-1.002-.755.785-1.658 1.178-2.707 1.178-.937 0-1.708-.264-2.311-.791-.598-.533-.897-1.207-.897-2.022 0-.99.375-1.758 1.125-2.302.756-.551 1.817-.827 3.182-.827h1.582v-.747c0-.568-.17-1.019-.51-1.353-.34-.34-.841-.51-1.503-.51-.58 0-1.066.147-1.459.439-.392.293-.589.648-.589 1.064h-1.634c0-.475.167-.932.501-1.371.34-.445.797-.797 1.371-1.055a4.64 4.64 0 011.907-.387c1.096 0 1.954.276 2.575.827.621.545.944 1.297.967 2.258v4.377c0 .873.111 1.568.334 2.083V205h-1.705zm-2.698-1.239c.509 0 .993-.132 1.45-.396.457-.263.788-.606.993-1.028v-1.951h-1.274c-1.993 0-2.989.583-2.989 1.749 0 .51.17.908.51 1.195.34.287.776.431 1.31.431zM308.938 205h-1.634v-3.445a8.653 8.653 0 01-2.198.281c-1.189 0-2.097-.305-2.724-.914-.621-.61-.938-1.477-.949-2.602v-2.839h1.626v2.892c.029 1.418.712 2.127 2.047 2.127.75 0 1.483-.094 2.198-.281v-4.729h1.634V205zm8.763-9.51h1.626V205h-1.626v-6.935L313.315 205h-1.626v-9.51h1.626v6.944l4.386-6.944z" fill="#000"/><path d="M75.87 226.842c-.123 1.053-.513 1.866-1.169 2.44-.651.57-1.52.855-2.604.855-1.176 0-2.12-.422-2.83-1.265-.707-.843-1.06-1.971-1.06-3.384v-.957c0-.925.164-1.738.492-2.44.333-.702.802-1.24 1.408-1.613.606-.379 1.308-.568 2.106-.568 1.057 0 1.905.296 2.543.889.638.588 1.01 1.403 1.114 2.447h-1.32c-.113-.793-.361-1.367-.744-1.723-.379-.355-.91-.533-1.593-.533-.839 0-1.497.31-1.976.93-.474.62-.71 1.502-.71 2.645v.964c0 1.08.225 1.939.676 2.577.451.638 1.082.957 1.894.957.729 0 1.287-.164 1.675-.492.391-.332.651-.909.779-1.729h1.32zm1.538 2.126l.438-.54c.492-.638.772-1.595.84-2.871l.117-2.953h4.764v6.364h.95v3.206h-1.264V230h-5.161v2.174h-1.265l.007-3.206h.574zm1.497 0h3.398v-5.196h-2.277l-.075 1.764c-.077 1.472-.426 2.616-1.046 3.432zm10.083 1.169c-1.002 0-1.818-.328-2.447-.985-.629-.66-.943-1.542-.943-2.645v-.233c0-.733.139-1.387.417-1.962a3.29 3.29 0 011.175-1.353 2.959 2.959 0 011.641-.492c.962 0 1.709.317 2.242.95.533.633.8 1.54.8 2.721v.526h-5.01c.017.729.23 1.319.635 1.771.41.446.93.669 1.559.669.446 0 .825-.091 1.134-.273.31-.182.581-.424.814-.725l.772.602c-.62.952-1.55 1.429-2.789 1.429zm-.157-6.631c-.51 0-.939.187-1.285.56-.347.37-.56.889-.643 1.559h3.705v-.096c-.036-.642-.21-1.139-.52-1.49-.309-.355-.728-.533-1.257-.533zm10.575-.902V230h-1.271v-6.351h-2.516l-.15 2.769c-.082 1.271-.296 2.181-.643 2.728-.342.546-.886.831-1.634.854h-.505v-1.114l.362-.028c.41-.045.704-.282.882-.711.177-.428.291-1.221.341-2.378l.137-3.165h4.997zm6.597 7.396c-.073-.146-.132-.406-.178-.779-.588.61-1.29.916-2.105.916-.729 0-1.329-.205-1.798-.616-.465-.414-.697-.938-.697-1.572 0-.77.291-1.367.875-1.791.588-.428 1.412-.642 2.474-.642h1.231v-.581c0-.442-.132-.793-.397-1.053-.264-.264-.654-.397-1.169-.397-.451 0-.829.114-1.135.342-.305.228-.458.504-.458.827h-1.271c0-.369.13-.724.39-1.066.264-.346.619-.62 1.066-.82a3.604 3.604 0 011.483-.301c.853 0 1.52.214 2.003.642.483.424.734 1.01.752 1.757v3.405c0 .679.087 1.219.26 1.62V230h-1.326zm-2.099-.964a2.22 2.22 0 001.128-.307c.356-.206.613-.472.773-.8v-1.518h-.992c-1.549 0-2.324.454-2.324 1.36 0 .397.132.707.397.93.264.223.604.335 1.018.335zm9.933-6.432h1.265V230h-1.265v-5.394L110.426 230h-1.265v-7.396h1.265v5.4l3.411-5.4zm.342-2.694c0 .552-.189.996-.568 1.333-.373.333-.866.499-1.476.499-.611 0-1.105-.168-1.484-.506-.378-.337-.567-.779-.567-1.326h1.032c0 .319.087.57.26.752.173.178.426.267.759.267.319 0 .567-.089.745-.267.182-.178.273-.428.273-.752h1.026zm8.449 3.719h-2.482V230h-1.264v-6.371h-2.434v-1.025h6.18v1.025zm3.753 6.508c-1.003 0-1.819-.328-2.447-.985-.629-.66-.944-1.542-.944-2.645v-.233c0-.733.139-1.387.417-1.962a3.295 3.295 0 011.176-1.353 2.96 2.96 0 011.641-.492c.961 0 1.709.317 2.242.95.533.633.8 1.54.8 2.721v.526h-5.011c.018.729.23 1.319.636 1.771.41.446.929.669 1.558.669.447 0 .825-.091 1.135-.273.31-.182.581-.424.813-.725l.773.602c-.62.952-1.55 1.429-2.789 1.429zm-.157-6.631c-.511 0-.939.187-1.286.56-.346.37-.56.889-.642 1.559h3.705v-.096c-.036-.642-.21-1.139-.52-1.49-.309-.355-.729-.533-1.257-.533zm10.582 0c-.452 0-.843.143-1.176.431-.328.287-.492.626-.492 1.018h-1.203c0-.424.134-.829.403-1.217a2.873 2.873 0 011.073-.923 2.99 2.99 0 011.395-.348c.961 0 1.738.348 2.331 1.046.597.692.895 1.599.895 2.72v.212a4.36 4.36 0 01-.41 1.901 3.105 3.105 0 01-1.142 1.326c-.487.31-1.045.465-1.674.465-.821 0-1.504-.255-2.051-.766-.547-.51-.82-1.146-.82-1.907h1.203c0 .465.161.857.485 1.176.324.314.718.471 1.183.471a1.67 1.67 0 001.34-.629c.35-.419.553-.995.608-1.729h-2.775v-1.039h2.761c-.064-.665-.266-1.199-.608-1.6a1.656 1.656 0 00-1.326-.608zm9.884.123h-2.481V230h-1.265v-6.371h-2.433v-1.025h6.179v1.025zm.609 2.604c0-.724.141-1.376.424-1.955.287-.578.683-1.025 1.189-1.34.511-.314 1.092-.471 1.743-.471 1.007 0 1.821.348 2.441 1.046.624.697.936 1.624.936 2.782v.089c0 .72-.139 1.367-.417 1.941a3.109 3.109 0 01-1.182 1.333c-.511.319-1.099.479-1.764.479-1.003 0-1.816-.349-2.44-1.046-.62-.697-.93-1.62-.93-2.769v-.089zm1.271.151c0 .82.189 1.479.568 1.975.383.497.893.745 1.531.745.643 0 1.153-.25 1.531-.751.378-.506.568-1.213.568-2.12 0-.811-.194-1.467-.581-1.968-.383-.506-.894-.759-1.532-.759-.624 0-1.128.248-1.51.745-.383.497-.575 1.208-.575 2.133zM165.141 230h-1.265v-6.351h-3.404V230H159.2v-7.396h5.941V230zm8.278-3.616c0 1.125-.258 2.032-.773 2.72-.514.689-1.212 1.033-2.091 1.033-.898 0-1.604-.285-2.119-.855v3.562h-1.265v-10.24h1.155l.062.82c.515-.638 1.23-.957 2.146-.957.889 0 1.591.335 2.106 1.005.519.67.779 1.602.779 2.796v.116zm-1.265-.144c0-.834-.177-1.492-.533-1.975-.355-.483-.843-.725-1.463-.725-.765 0-1.34.34-1.722 1.019v3.534c.378.674.957 1.011 1.736 1.011.606 0 1.087-.239 1.442-.717.36-.483.54-1.199.54-2.147zm8.532-3.636V230h-1.272v-2.878h-1.907L175.764 230h-1.368l1.86-3.069c-.474-.174-.839-.44-1.094-.8a2.19 2.19 0 01-.376-1.272c0-.674.253-1.216.759-1.627.506-.414 1.183-.624 2.03-.628h3.111zm-4.628 2.269c0 .36.123.652.369.875.246.219.572.33.977.335h2.01v-2.454h-1.818c-.47 0-.843.116-1.121.349a1.1 1.1 0 00-.417.895zm10.917 3.452l2.515-5.721h1.579V230h-1.264v-5.38l-2.393 5.38h-.875l-2.44-5.496V230h-1.265v-7.396h1.641l2.502 5.721zm5.796-2.092c0-.724.142-1.376.424-1.955a3.226 3.226 0 011.19-1.34c.51-.314 1.091-.471 1.743-.471 1.007 0 1.821.348 2.44 1.046.625.697.937 1.624.937 2.782v.089c0 .72-.139 1.367-.417 1.941a3.117 3.117 0 01-1.183 1.333c-.51.319-1.098.479-1.763.479-1.003 0-1.816-.349-2.441-1.046-.62-.697-.93-1.62-.93-2.769v-.089zm1.272.151c0 .82.189 1.479.567 1.975.383.497.894.745 1.532.745.642 0 1.153-.25 1.531-.751.378-.506.567-1.213.567-2.12 0-.811-.193-1.467-.581-1.968-.383-.506-.893-.759-1.531-.759-.624 0-1.128.248-1.511.745s-.574 1.208-.574 2.133zm13.487 2.72a1.82 1.82 0 001.183-.41 1.44 1.44 0 00.56-1.025h1.197a2.295 2.295 0 01-.438 1.21 2.876 2.876 0 01-1.08.916c-.446.228-.92.342-1.422.342-1.007 0-1.809-.335-2.406-1.005-.592-.675-.889-1.595-.889-2.762v-.212c0-.72.133-1.36.397-1.921.264-.56.642-.995 1.135-1.305.496-.31 1.082-.465 1.756-.465.83 0 1.518.248 2.065.745.551.497.845 1.142.882 1.934h-1.197c-.036-.478-.218-.87-.546-1.175-.324-.31-.725-.465-1.204-.465-.642 0-1.141.232-1.497.697-.351.46-.526 1.128-.526 2.003v.239c0 .853.175 1.509.526 1.969.351.46.853.69 1.504.69zm7.431 1.033c-1.003 0-1.818-.328-2.447-.985-.629-.66-.944-1.542-.944-2.645v-.233c0-.733.139-1.387.417-1.962a3.295 3.295 0 011.176-1.353 2.96 2.96 0 011.641-.492c.961 0 1.709.317 2.242.95.533.633.8 1.54.8 2.721v.526h-5.011c.018.729.23 1.319.636 1.771.41.446.929.669 1.558.669.447 0 .825-.091 1.135-.273.31-.182.581-.424.814-.725l.772.602c-.62.952-1.549 1.429-2.789 1.429zm-.157-6.631c-.511 0-.939.187-1.285.56-.347.37-.561.889-.643 1.559h3.705v-.096c-.036-.642-.21-1.139-.519-1.49-.31-.355-.73-.533-1.258-.533zm9.297-.902h1.264V230h-1.264v-5.394L220.689 230h-1.264v-7.396h1.264v5.4l3.412-5.4zm.341-2.694c0 .552-.189.996-.567 1.333-.374.333-.866.499-1.477.499-.61 0-1.105-.168-1.483-.506-.378-.337-.567-.779-.567-1.326h1.032c0 .319.086.57.26.752.173.178.426.267.758.267.319 0 .568-.089.746-.267.182-.178.273-.428.273-.752h1.025zM232.98 230h-1.271v-2.68a6.703 6.703 0 01-1.709.219c-.925 0-1.632-.237-2.119-.711-.483-.474-.729-1.148-.738-2.023v-2.208h1.264v2.249c.023 1.103.554 1.654 1.593 1.654.583 0 1.153-.073 1.709-.219v-3.677h1.271V230zm6.597 0c-.073-.146-.132-.406-.178-.779-.587.61-1.289.916-2.105.916-.729 0-1.329-.205-1.798-.616-.465-.414-.697-.938-.697-1.572 0-.77.291-1.367.875-1.791.588-.428 1.413-.642 2.474-.642h1.231v-.581c0-.442-.132-.793-.397-1.053-.264-.264-.654-.397-1.169-.397-.451 0-.829.114-1.134.342-.306.228-.458.504-.458.827h-1.272c0-.369.13-.724.39-1.066a2.7 2.7 0 011.066-.82 3.605 3.605 0 011.484-.301c.852 0 1.52.214 2.003.642.483.424.733 1.01.752 1.757v3.405c0 .679.086 1.219.259 1.62V230h-1.326zm-2.098-.964a2.22 2.22 0 001.127-.307c.356-.206.613-.472.773-.8v-1.518h-.991c-1.55 0-2.325.454-2.325 1.36 0 .397.133.707.397.93.264.223.604.335 1.019.335zm8.114.068c.451 0 .845-.136 1.182-.41.338-.273.524-.615.561-1.025h1.196a2.294 2.294 0 01-.437 1.21 2.876 2.876 0 01-1.08.916 3.087 3.087 0 01-1.422.342c-1.007 0-1.809-.335-2.406-1.005-.593-.675-.889-1.595-.889-2.762v-.212c0-.72.132-1.36.396-1.921.265-.56.643-.995 1.135-1.305.497-.31 1.082-.465 1.757-.465.829 0 1.518.248 2.064.745.552.497.846 1.142.882 1.934h-1.196c-.037-.478-.219-.87-.547-1.175-.324-.31-.725-.465-1.203-.465-.643 0-1.142.232-1.497.697-.351.46-.527 1.128-.527 2.003v.239c0 .853.176 1.509.527 1.969.351.46.852.69 1.504.69zm5.776-1.914h-1.141l-.089-7.143h1.326l-.096 7.143zm-1.278 2.174c0-.205.061-.376.184-.512.128-.142.315-.212.561-.212.246 0 .433.07.56.212a.718.718 0 01.192.512.722.722 0 01-.192.513c-.127.132-.314.198-.56.198-.246 0-.433-.066-.561-.198a.739.739 0 01-.184-.513z" fill="#999"/><g clip-path="url(#clip0)"><path d="M275.721 137.801c-2.019-5.179-3.526-10.677-5.171-16.483-1.111-3.915-2.899-8.292-6.772-9.523-3.773-1.199-7.833 1.286-10.149 4.492-2.321 3.205-3.487 7.087-5.473 10.512-3.597 6.202-9.962 8.803-15.226 3.349-7.52-7.791-10.903-18.408-15.672-27.909-3.46-6.895-6.359-14.972-10.721-21.328-6.651-9.693-15.771-17.957-27.895-17.957-7.685 1.166-14.456 7.967-19.044 16.473-4.582 8.506-7.256 18.617-9.533 28.706-4.142 18.347-7.179 37.118-10.21 55.867l152.99-1.781c-.611.005-4.357-5.004-5.077-5.696-5.875-5.686-9.401-11.932-12.047-18.722z" fill="#DCE6EF"/><path d="M246.682 146.543c-.302 5.944-6.771 16.336-12.718 16.039-5.946-.297-9.12-11.178-8.818-17.122.303-5.943 6.634-35.689 12.581-35.392 5.946.297 9.258 30.532 8.955 36.475z" fill="#6AA5FE"/><path d="M237.441 113.934l-2.998 48.169" stroke="#1A55B5" stroke-width=".868" stroke-miterlimit="10" stroke-linecap="round" stroke-linejoin="round"/><path d="M233.073 145.306c-1.353 2.975-2.387 6.092-3.009 9.347-.314 1.65-.517 3.436.231 4.937.814 1.644 2.624 2.601 4.434 2.898 4.422.726 8.84-1.979 11.43-5.636 2.591-3.65 3.713-8.115 4.742-12.475.809-3.431 1.606-6.911 3.136-10.111.654-1.369 4.494-6.664 2.679-8.033-2.481-1.952-9.671.17-14.275 5.196-3.79 4.134-7.052 8.791-9.368 13.877z" fill="#FFC957"/><path d="M234.729 162.483s5.335-20.767 18.224-32.676" stroke="#6AA5FE" stroke-width=".868" stroke-miterlimit="10" stroke-linecap="round" stroke-linejoin="round"/><path d="M264.335 140.407c-.457.819-1.315 1.375-2.091 1.815-.957.538-1.98 1.011-2.965 1.473-1.265.588-2.574 1.199-3.784 1.957a12.793 12.793 0 00-2.322 1.848c1.04-2.359 2.25-4.415 3.68-6.257 1.882-2.419 3.812-3.645 5.743-3.645h.132c.594.016 1.062.165 1.381.44.655.56.627 1.643.226 2.369zM266.491 153.834c-.765.544-1.777.682-2.668.748-1.095.076-2.223.071-3.312.06-1.397-.011-2.844-.022-4.257.148a12.582 12.582 0 00-2.888.677c1.947-1.688 3.927-3.03 6.007-4.08 2.739-1.385 5.005-1.666 6.749-.841.039.016.083.038.121.06.534.27.891.605 1.062.99.346.786-.143 1.759-.814 2.238z" fill="#1A55B5"/><path d="M261.403 160.443c-.633-.088-1.205-.495-1.678-.88-.583-.473-1.139-1.006-1.678-1.518-.693-.659-1.403-1.341-2.189-1.918a8.794 8.794 0 00-1.755-1.018c1.76.072 3.372.336 4.901.787 2.008.593 3.273 1.517 3.752 2.743.011.028.022.055.033.088.137.385.159.715.066.99-.198.55-.891.803-1.452.726z" fill="#1A55B5"/><path d="M246.93 162.598s.06-12.706 15.584-23.494M246.93 162.598s4.769-10.21 17.69-10.21M253.965 155.23s2.503-.181 7.729 3.756" stroke="#2A294F" stroke-width=".78" stroke-miterlimit="10" stroke-linecap="round" stroke-linejoin="round"/><path d="M113.528 162.708c-3.586-13.559-7.195-27.123-11.414-40.252-2.376-7.406-5.006-14.779-8.653-20.701-3.647-5.921-8.477-10.293-13.328-10.265-7.47 1.446-12.295 8.819-15.458 16.989-2.073 5.356-3.08 11.843-4.543 17.507-2.02 7.796-3.08 16.28-6.959 23.097-2.717 4.778-6.892 3.558-9.709-.731-1.551-2.37-2.651-5.185-4.39-7.345-1.738-2.161-4.483-3.569-6.688-2.205-2.272 1.402-2.949 4.943-3.257 8.055-.451 4.613-.853 8.973-1.595 13.157a61.59 61.59 0 01-.54 2.705h86.534v-.011z" fill="#DCE6EF"/><path d="M81.442 143.992c-2.244-2.584-5.083-4.816-5.974-8.077-.655-2.38-.138-4.904.115-7.362.253-2.457.165-5.174-1.424-7.065-1.31-1.561-3.383-2.238-5.375-2.667-1.99-.428-4.07-.698-5.836-1.71-2.871-1.643-2.3-4.442-3.84-6.894-1.727-2.755-5.753-6.268-9.197-4.437-3.653 1.935-3.075 7.818-.644 10.413 1.612 1.721 3.675 3.376 3.911 5.718.358 3.53-3.69 6.714-2.58 10.084.826 2.491 3.961 3.343 5.512 5.46 1.535 2.095 1.227 5.025.32 7.455-.903 2.431-2.327 4.679-2.889 7.214-1.15 5.179 2.916 8.764 7.553 9.919 4.258 1.061 13.444.561 13.444.561 3.279-1.144 6.915-4.025 8.714-7.17 1.364-2.375 1.55-5.388.495-7.918-.54-1.303-1.37-2.441-2.305-3.524z" fill="#FFC957"/><path d="M53.987 111.366s15.683 24.214 17.389 51.1" stroke="#6AA5FE" stroke-miterlimit="10" stroke-linecap="round" stroke-linejoin="round"/><path d="M40.02 144.025c.243-.209.595-.319 1.046-.33h.099c1.458 0 2.92.93 4.34 2.76 1.084 1.391 1.997 2.947 2.783 4.729a9.603 9.603 0 00-1.754-1.397c-.914-.572-1.904-1.033-2.86-1.479-.749-.346-1.52-.703-2.245-1.116-.589-.33-1.238-.753-1.579-1.369-.308-.55-.325-1.369.17-1.798zM37.606 154.279c.132-.291.401-.544.803-.748.028-.016.06-.027.088-.043 1.32-.627 3.036-.413 5.105.637 1.573.798 3.07 1.809 4.538 3.085a9.54 9.54 0 00-2.184-.512c-1.073-.126-2.167-.121-3.223-.115-.825.005-1.673.011-2.503-.049-.671-.05-1.441-.154-2.013-.561-.507-.363-.875-1.094-.611-1.694z" fill="#6AA5FE"/><path d="M40.967 160.415c-.072-.203-.055-.456.05-.747.005-.022.016-.044.021-.066.364-.93 1.315-1.628 2.839-2.079a15.195 15.195 0 013.707-.594 6.703 6.703 0 00-1.325.77c-.594.44-1.133.957-1.656 1.452-.407.39-.825.791-1.265 1.149-.358.291-.787.599-1.265.665-.43.061-.958-.132-1.106-.55z" fill="#6AA5FE"/><path d="M53.008 162.598s-.044-9.611-11.782-17.765M53.008 162.598s-3.603-7.719-13.378-7.719M47.69 157.028s-1.893-.137-5.843 2.843" stroke="#2A294F" stroke-width=".78" stroke-miterlimit="10" stroke-linecap="round" stroke-linejoin="round"/><path d="M178.95 162.598H75.446a5.197 5.197 0 01-5.198-5.196V17.122a5.196 5.196 0 015.198-5.196H178.95a5.196 5.196 0 015.198 5.196v140.286a5.195 5.195 0 01-5.198 5.19z" fill="#6AA5FE"/><path d="M70.253 48.632v108.776a5.197 5.197 0 005.198 5.196h103.504a5.196 5.196 0 005.198-5.196v-21.471l-113.9-87.305z" fill="#527EE9"/><path d="M175.407 155.648H78.994a2.124 2.124 0 01-2.123-2.122V20.998c0-1.171.951-2.123 2.123-2.123h96.413c1.172 0 2.124.952 2.124 2.123v132.528a2.124 2.124 0 01-2.124 2.122z" fill="#F3F4F6"/><path d="M135.834 9.078c.005-.143.022-.28.022-.43 0-4.777-3.878-8.653-8.658-8.653-4.781 0-8.659 3.876-8.659 8.654 0 .143.017.286.022.429h-12.723v13.19h42.719V9.078h-12.723z" fill="#1A55B5"/><path d="M105.843 9.078v13.19h42.714l-42.714-13.19z" fill="#2C6BC6"/><path d="M129.069 13.136a4.86 4.86 0 10-3.743-8.972 4.86 4.86 0 103.743 8.972z" fill="#527EE9"/><path d="M123.765 5.218a4.86 4.86 0 000 6.873 4.866 4.866 0 006.876 0l-6.876-6.873z" fill="#6AA5FE"/><path d="M148.563 22.268h-42.72v.907h42.72v-.907z" fill="#CDE1F9"/><path d="M104.699 40.533h-16.2v16.192h16.2V40.533z" stroke="#1A55B5" stroke-miterlimit="10"/><path d="M93.241 49.456l4.957 3.893 10.072-9.704" stroke="#F3F4F6" stroke-width="4" stroke-miterlimit="10"/><path d="M92.141 48.357l4.956 3.892 10.072-9.704" stroke="#FF746F" stroke-width="4" stroke-miterlimit="10"/><path d="M165.275 45.13h-52.792a.62.62 0 110-1.244h52.798a.62.62 0 11-.006 1.243zM165.275 47.878h-52.792a.62.62 0 110-1.242h52.798a.62.62 0 11-.006 1.242zM165.275 50.627h-52.792a.62.62 0 110-1.242h52.798a.62.62 0 11-.006 1.242zM165.275 53.376h-52.792a.62.62 0 110-1.242h52.798a.62.62 0 11-.006 1.242z" fill="#6AA5FE"/><path d="M104.699 66.605h-16.2v16.192h16.2V66.605z" stroke="#1A55B5" stroke-miterlimit="10"/><path d="M93.241 75.529l4.957 3.887 10.072-9.699" stroke="#F3F4F6" stroke-width="4" stroke-miterlimit="10"/><path d="M92.141 74.43l4.956 3.886 10.072-9.698" stroke="#FF746F" stroke-width="4" stroke-miterlimit="10"/><path d="M165.275 71.202h-52.792a.62.62 0 110-1.243h52.798a.62.62 0 11-.006 1.243zM165.275 73.95h-52.792a.62.62 0 110-1.242h52.798a.62.62 0 11-.006 1.243zM165.275 76.7h-52.792a.62.62 0 110-1.243h52.798a.62.62 0 11-.006 1.243zM165.275 79.449h-52.792a.62.62 0 110-1.243h52.798a.62.62 0 11-.006 1.243z" fill="#6AA5FE"/><path d="M104.699 92.677h-16.2v16.193h16.2V92.677z" stroke="#1A55B5" stroke-miterlimit="10"/><path d="M93.241 101.601l4.957 3.887 10.072-9.698" stroke="#F3F4F6" stroke-width="4" stroke-miterlimit="10"/><path d="M92.141 100.502l4.956 3.887 10.072-9.7" stroke="#FF746F" stroke-width="4" stroke-miterlimit="10"/><path d="M165.275 97.274h-52.792a.62.62 0 110-1.243h52.798a.62.62 0 11-.006 1.243zM165.275 100.023h-52.792a.62.62 0 110-1.243h52.798a.62.62 0 11-.006 1.243zM165.275 102.772h-52.792a.62.62 0 110-1.242h52.798a.62.62 0 11-.006 1.242zM165.275 105.521h-52.792a.62.62 0 110-1.242h52.798a.62.62 0 11-.006 1.242z" fill="#6AA5FE"/><path d="M104.699 118.75h-16.2v16.192h16.2V118.75z" stroke="#1A55B5" stroke-miterlimit="10"/><path d="M93.241 127.674l4.957 3.887 10.072-9.699" stroke="#F3F4F6" stroke-width="4" stroke-miterlimit="10"/><path d="M92.141 126.574l4.956 3.887 10.072-9.699" stroke="#FF746F" stroke-width="4" stroke-miterlimit="10"/><path d="M165.275 123.346h-52.792a.62.62 0 110-1.242h52.798a.62.62 0 11-.006 1.242zM165.275 126.095h-52.792a.62.62 0 110-1.242h52.798a.62.62 0 11-.006 1.242zM165.275 128.845h-52.792a.621.621 0 010-1.243h52.798a.62.62 0 11-.006 1.243zM165.275 131.594h-52.792a.621.621 0 010-1.243h52.798a.62.62 0 11-.006 1.243z" fill="#6AA5FE"/><path d="M188.78 54.421c-.336.258-3.389 2.062-3.389 2.062l-2.167-2.771.644-3.162 4.664.292.815 2.358c.192.556-.154.902-.567 1.221z" fill="#FE9280"/><path d="M188.526 50.836l.705 2.068-2.151.863a1.973 1.973 0 01-2.745-2.05l.137-1.14 4.054.26z" fill="#E86767"/><path d="M187.471 53.602l1.864.27 1.024-1.749a.683.683 0 00-.209-.935.684.684 0 00-.936.21l-1.743 2.204z" fill="#FF746F"/><path d="M186.063 61.08l-3.846.973-1.375 11.128 4.5.181.721-12.282z" fill="#fff"/><path d="M236.615 70.113l-6.722-.847 1.54-12.211 6.722.846a6.16 6.16 0 015.342 6.879 6.163 6.163 0 01-6.882 5.333z" fill="#FE9280"/><path opacity=".2" d="M236.967 67.331l-6.722-.847-.352 2.782 6.722.847a6.163 6.163 0 006.898-6.752c-.974 2.629-3.652 4.338-6.546 3.97z" fill="#777470"/><path d="M229.074 69.167l-71.308-9.193 1.535-12.217 71.313 9.193-1.54 12.217z" fill="#FFC957"/><path d="M145.059 52.167l12.707 7.807 1.535-12.217-14.242 4.41z" fill="#FFF4DD"/><path opacity=".2" d="M145.059 52.167l12.707 7.807.374-2.99-13.081-4.817z" fill="#777470"/><path d="M149.3 50.858l-4.241 1.309 3.785 2.326.456-3.635z" fill="#2A294F"/><path d="M236.521 57.695l-5.9-.742-1.539 12.214 5.9.742 1.539-12.214z" fill="#D3EAF5"/><path d="M236.59 57.175l-2.019-.254-1.67 13.262 2.019.254 1.67-13.262z" fill="#D3EAF5"/><path opacity=".2" d="M232.957 69.656l-75.191-9.682.374-2.99 75.197 9.681-.38 2.991z" fill="#777470"/><path opacity=".05" d="M234.197 60.673L159 50.985l.374-2.985 75.197 9.682-.374 2.991z" fill="#777470"/><path opacity=".15" d="M235.428 66.381l-2.02-.254-.51 4.053 2.019.254.511-4.053z" fill="#777470"/><path d="M205.678 93.898l1.012-2.6 3.394-.264c.627-.066 1.178.313 1.238.846.055.534-.401 1.023-1.029 1.089l-4.615.93z" fill="#E86767"/><path d="M203.929 91.308l1.749 2.59 3.328-.67-3.707-5.548-.721.472a2.279 2.279 0 00-.649 3.156z" fill="#FF746F"/><path d="M207.208 49.594c-3.461-5.037-12.168-3.695-11.943 4.376 0 .022 0 .05.006.072-.022 1.022.011 2.067-.253 3.03-.138.489-.369.94-.726 1.264-.353.33-.809.528-1.288.627-.484.11-1.012.132-1.551.242a4.917 4.917 0 00-1.551.593c-.963.561-1.749 1.48-2.107 2.563-.688 2.155-.137 4.651 1.485 6.273a5.1 5.1 0 001.403.979c.517.253 1.106.346 1.584.445 1.007.22 2.025.511 3.059.715l.027-.088c-.957-.44-1.898-.902-2.91-1.254-.528-.187-.979-.291-1.391-.544a4.661 4.661 0 01-1.106-.896 6.361 6.361 0 01-1.37-2.519c-.264-.934-.319-1.94-.055-2.87.259-.923.88-1.726 1.705-2.26.407-.269.87-.461 1.348-.582.484-.121 1.012-.17 1.546-.313.533-.138 1.062-.407 1.452-.825.396-.413.622-.946.732-1.474a6.55 6.55 0 00.126-1.127c.094 1.507-.038 3.035-1.584 3.612-.891.336-1.76.336-2.591.886-.814.544-1.458 1.347-1.771 2.27-.974 2.854 1.557 6.549 4.532 6.868 1.233.132 2.465.428 3.681.648.341.06 5.126 1.04 5.165.93l5.539-16.39-1.193-5.251z" fill="#1A55B5"/><path d="M206.944 90.137l11.232-7.835-1.567-4.338-11.31 9.71 1.645 2.463z" fill="#fff"/><path d="M215.173 81.23a2.25 2.25 0 104.07-1.924 2.25 2.25 0 00-4.07 1.924z" fill="#fff"/><path d="M215.734 82.038l3.202-3.166-9.247-10.397a2.901 2.901 0 00-4.368-.336c-1.254 1.237-1.117 4.684.286 5.751l10.127 8.148z" fill="#fff"/><path d="M200.091 67.671l3.787.32.672-7.926-3.787-.321-.672 7.927z" fill="#FF746F"/><path d="M182.85 71.499a2.25 2.25 0 00-2.096 2.397 2.25 2.25 0 002.398 2.095 2.248 2.248 0 002.096-2.398 2.245 2.245 0 00-2.398-2.094z" fill="#fff"/><path d="M181.431 71.828l2.283 4.053 13.944-4.053c1.711-.434 2.635-3.667 1.964-5.294a2.896 2.896 0 00-4.153-1.386l-14.038 6.68z" fill="#fff"/><path d="M202.774 87.46l7.058-17.309a2.45 2.45 0 00-2.047-3.024l-10.132-2.298a2.447 2.447 0 00-2.778 2.37l-3.466 18.875 11.365 1.386z" fill="#fff"/><path d="M201.635 50.517c-1.171 1.48-3.273 2.1-3.768 3.459l-.104.627v.087l-.011-.021-.319 1.896a4.414 4.414 0 008.707 1.468l.364-2.138c-.259-2.167-4.231-2.337-4.869-5.378z" fill="#FF746F"/><path d="M205.673 57.027a1.026 1.026 0 102.024.34 1.026 1.026 0 00-2.024-.34z" fill="#FF746F"/><path d="M196.399 86.684l5.077 12.53-4.852 58.54h-3.729l-4.39-58.902 2.899-12.778 4.995.61z" fill="#1A55B5"/><path d="M196.398 86.685v12.53l22.856 58.539h2.8l-12.228-60.75-7.052-9.544-6.376-.775z" fill="#527EE9"/><path d="M194.985 160.811h-1.563v-3.057h2.025l-.462 3.057z" fill="#FF746F"/><path d="M193.373 160.118l.913.402.842-.402.764 2.48h-7.046l2.646-1.237 1.881-1.243z" fill="#2A294F"/><path d="M221.097 160.811h1.557l-.919-3.057h-2.024l1.386 3.057z" fill="#FF746F"/><path d="M222.709 160.118l-.913.402-.847-.402-.76 2.48h7.047l-2.646-1.237-1.881-1.243z" fill="#2A294F"/><path d="M198.269 74.27a3.194 3.194 0 01-3.196 3.194 3.194 3.194 0 110-6.389 3.194 3.194 0 013.196 3.195z" fill="#fff"/><path d="M197.944 64.917l.402 6.862 5.935-6.042-6.337-.82z" fill="#FF746F"/><path d="M210.866 51.05a5.584 5.584 0 00-1.816-1.528c-1.116-.588-2.376-.522-3.399-1.402l.798 8.055c1.468-.418 1.38 2.744-.314 1.87 0 0-3.361 1.44-4.637 4.585-.875 2.111-1.023 4.58-.792 5.988.412 2.523 2.552 3.832 4.989 3.09 1.452-.446 2.635-1.54 3.477-2.81 2.942-4.442 4.901-11.744 2.387-16.758a6.872 6.872 0 00-.693-1.09z" fill="#1A55B5"/><path d="M183.824 50.078l-.083.511a1.968 1.968 0 001.623 2.249l.836.132a1.968 1.968 0 002.25-1.622l.082-.512-4.708-.758z" fill="#FF746F"/><path d="M201.767 56.967c-.264-.165-2.002-.49-2.211-.374-.226.126-.319.423-.259.676.061.253.248.456.457.605.484.33 1.144.385 1.678.137.203-.093.39-.236.478-.445.094-.203.05-.478-.143-.6z" fill="#fff"/><path d="M27.479 162.598h266.306" stroke="#2A294F" stroke-width=".78" stroke-miterlimit="10" stroke-linecap="round" stroke-linejoin="round"/></g><defs><clipPath id="clip0"><path fill="#fff" d="M27 0h267v164H27z"/></clipPath></defs></svg>